<?xml version="1.0" standalone="no"?>
<!DOCTYPE svg PUBLIC "-//W3C//DTD SVG 20010904//EN"
 "http://www.w3.org/TR/2001/REC-SVG-20010904/DTD/svg10.dtd">
<svg version="1.0" xmlns="http://www.w3.org/2000/svg"
 width="640.000000pt" height="640.000000pt" viewBox="0 0 640.000000 640.000000"
 preserveAspectRatio="xMidYMid meet">

<g transform="translate(0.000000,640.000000) scale(0.100000,-0.100000)"
fill="#000000" stroke="none">
<path d="M2900 4914 c-57 -25 -99 -63 -125 -114 -24 -47 -24 -52 -27 -356 l-3
-309 -920 -5 c-891 -5 -921 -6 -952 -25 -67 -40 -63 45 -63 -1323 l0 -1239 23
-34 c12 -18 34 -39 47 -46 20 -10 505 -13 2325 -13 2233 0 2301 1 2331 19 68
42 64 -44 64 1318 0 1149 -1 1230 -18 1262 -9 19 -30 44 -45 55 -28 21 -36 21
-952 24 l-924 2 -3 318 -3 317 -25 40 c-32 53 -66 84 -115 106 -36 17 -69 19
-310 18 -218 0 -277 -3 -305 -15z m598 -102 c18 -13 41 -41 52 -62 19 -37 20
-60 20 -420 l0 -380 -365 0 -365 0 0 379 c0 394 2 415 43 460 44 48 64 51 332
48 244 -2 251 -3 283 -25z m-754 -874 l-1 -88 459 0 458 0 0 90 0 90 908 0
c693 0 911 -3 920 -12 17 -17 17 -2449 0 -2466 -9 -9 -530 -12 -2282 -12
-2098 0 -2271 1 -2288 17 -17 15 -18 67 -18 1225 0 817 3 1216 10 1229 11 19
29 19 923 17 l912 -3 -1 -87z"/>
<path d="M3174 4458 c-33 -15 -50 -53 -38 -85 22 -62 104 -69 128 -11 17 39
11 63 -22 88 -28 22 -37 23 -68 8z"/>
<path d="M3670 3671 c-7 -13 -10 -309 -10 -890 0 -777 2 -871 16 -885 14 -14
98 -16 774 -16 676 0 760 2 774 16 14 14 16 108 16 885 0 581 -3 877 -10 890
-10 19 -30 19 -780 19 -750 0 -770 0 -780 -19z m1478 -868 c2 -563 0 -799 -8
-813 -10 -18 -19 -21 -63 -18 l-52 3 -5 115 c-6 128 -20 167 -86 240 -58 64
-131 93 -242 98 -92 4 -94 4 -139 -28 -78 -56 -142 -52 -253 16 -19 11 -46 14
-105 11 -131 -6 -228 -66 -286 -179 -18 -35 -24 -66 -28 -158 l-6 -115 -55 0
-55 0 -3 800 c-1 440 0 806 3 813 3 10 147 12 692 10 l688 -3 3 -792z m-841
-505 c105 -52 194 -49 285 9 44 27 138 32 191 10 96 -41 139 -113 145 -244 l4
-93 -476 0 -476 0 -1 68 c-2 91 -1 101 17 149 16 45 68 97 118 119 55 23 122
17 193 -18z"/>
<path d="M4250 3364 c-318 -93 -349 -104 -359 -122 -17 -34 4 -59 66 -76 32
-9 74 -22 93 -29 l35 -13 7 -94 c21 -290 39 -357 118 -443 64 -71 126 -100
217 -105 106 -6 163 16 239 92 93 93 110 151 132 456 l7 95 75 23 c117 36 120
38 120 71 0 16 -6 33 -12 38 -11 8 -493 150 -538 159 -8 1 -98 -22 -200 -52z
m333 -84 c78 -23 150 -43 161 -46 11 -4 14 -10 9 -15 -12 -12 -281 -89 -310
-89 -29 0 -295 78 -306 89 -6 6 18 18 59 29 101 30 239 70 242 71 2 1 67 -17
145 -39z m-197 -237 l61 -16 124 35 c68 20 128 32 132 28 5 -4 7 -29 5 -55 -2
-39 -7 -49 -23 -52 -55 -9 -322 -13 -405 -6 l-95 8 -3 44 c-5 71 -3 73 75 50
37 -11 96 -27 129 -36z m79 -164 c83 1 166 3 185 4 l35 2 -1 -54 c-4 -136
-119 -261 -239 -261 -106 0 -210 99 -236 226 -18 87 -11 98 54 88 28 -4 120
-6 202 -5z"/>
<path d="M1222 3668 c-17 -17 -17 -459 0 -476 17 -17 1949 -17 1966 0 17 17
17 459 0 476 -17 17 -1949 17 -1966 0z m1878 -238 l0 -160 -897 2 -898 3 -2
134 c-1 74 3 144 8 157 l9 24 890 0 890 0 0 -160z"/>
<path d="M1220 2790 l0 -50 985 0 985 1 0 49 0 50 -985 0 -985 0 0 -50z"/>
<path d="M1224 2401 c-2 -2 -4 -24 -4 -48 l0 -43 986 0 985 0 -3 45 -3 45
-978 3 c-538 1 -981 0 -983 -2z"/>
<path d="M1220 1925 l0 -45 985 0 985 0 0 45 0 45 -985 0 -985 0 0 -45z"/>
</g>
</svg>
